<?xml version="1.0" encoding="UTF-8" standalone="no"?>
<!DOCTYPE svg PUBLIC "-//W3C//DTD SVG 1.1//EN" "http://www.w3.org/Graphics/SVG/1.1/DTD/svg11.dtd">
<svg width="1920px" height="1080px" version="1.1" xmlns="http://www.w3.org/2000/svg" xmlns:xlink="http://www.w3.org/1999/xlink" xml:space="preserve" xmlns:serif="http://www.serif.com/" style="fill-rule:evenodd;clip-rule:evenodd;stroke-linejoin:round;stroke-miterlimit:2;">
    <g id="cliffs">
        <g transform="matrix(-1.56489,0,0,1.40826,2979.82,-501.562)">
            <path d="M543.829,1114.33L626.929,1040.07L579.933,1013.65L593.058,686.71L701.618,730.595L903.114,688.722C927.593,721.416 1023.67,768.292 1046.32,757.026L1110.5,840.3L1236.28,812.321L1400.03,843.68L1583.21,952.657L1854.48,972.901L1936.11,893.008L1997.94,969.451L1936.06,1146.26L543.829,1114.33Z" style="fill:rgb(53,30,30);"/>
        </g>
        <path d="M1605.99,620.659L1844.59,694.028L1838.07,708.304L1823,712.039L1593.46,624.836L1605.99,620.659Z" style="fill:rgb(43,26,26);"/>
        <path d="M1706.57,827.435L1709.94,737.972L1838.23,709.276L1861.86,651.885L1888.87,670.453L2013.78,700.836L1996.9,834.187L1706.57,827.435Z" style="fill:rgb(70,53,53);"/>
        <path d="M1713.66,742.544L1712.6,813.697L1773.84,824.671L1713.66,742.544Z" style="fill:rgb(61,42,42);"/>
        <path d="M335.937,1096.75L419.037,1022.49L579.933,1013.65L622.367,944.698L746.134,859.829L839.843,884.582L1023.72,799.714C1067.34,814.069 1110.95,809.28 1154.56,783.801L1299.55,808.555L1433.92,760.816L1669.08,803.25L1875.94,829.772L1923.68,822.699L1969.99,970.684L1936.06,1146.26L335.937,1096.75Z" style="fill:rgb(74,48,48);"/>
        <g transform="matrix(1,0,0,1,-12.3766,0)">
            <path d="M1265.3,680.033L1349.05,584.007L1485.73,726.623L1265.3,680.033Z" style="fill:rgb(74,48,48);"/>
        </g>
        <path d="M1156.39,786.85L1387.16,826.114L1418.01,877.51L1156.39,786.85Z" style="fill:rgb(62,36,36);"/>
        <g transform="matrix(1.00422,0,0,1,-6.27432,0)">
            <path d="M1393.79,823.997C1431.33,823.578 1443.82,805.627 1432.34,770.898L1487.01,822.424L1422.51,875.523L1393.79,823.997Z" style="fill:rgb(62,36,36);"/>
        </g>
        <path d="M-25.236,963.988L105.931,846.632L457.919,822.53L634.744,884.582C463.903,872.542 256.788,883.573 -25.236,963.988Z" style="fill:rgb(40,23,23);"/>
        <path d="M634.744,948.234L751.438,865.133L788.568,942.929L634.744,948.234Z" style="fill:rgb(64,39,39);"/>
        <path d="M1046.71,649.426L974.045,663.691L1492.27,736.818L1046.71,649.426Z" style="fill:rgb(74,48,48);"/>
        <path d="M510.815,839.552L791.19,688.53L847.769,680.645L521.887,840.615L510.815,839.552Z" style="fill:rgb(74,48,48);"/>
        <path d="M1.984,811.694L73.795,873.588L-9.027,943.797L1.984,811.694Z" style="fill:rgb(40,23,23);"/>
        <g transform="matrix(0.418278,0.65054,-0.841135,0.540825,1416.77,-142.975)">
            <ellipse cx="933.569" cy="1051.71" rx="23.117" ry="8.927" style="fill:rgb(40,23,23);"/>
        </g>
        <g transform="matrix(0.984044,0.177923,-0.177923,0.984044,162.998,-139.79)">
            <ellipse cx="1010.48" cy="1054" rx="10.3" ry="22.202" style="fill:rgb(40,23,23);"/>
        </g>
        <g transform="matrix(1,0,0,1.02857,-4.59921,-21.8987)">
            <path d="M1440.63,766.455L1494.67,818.995L1547.56,783L1440.63,766.455Z" style="fill:rgb(62,36,36);"/>
        </g>
        <path d="M426.016,1025.7L516.063,1075.43L577.853,1017.79L426.016,1025.7Z" style="fill:rgb(62,36,36);"/>
        <path d="M1716.85,742.19L1858.45,706.082L1883.58,713.87L1716.85,742.19Z" style="fill:rgb(61,42,42);"/>
        <path d="M1865.17,657.585L1886.06,672.099L1875.44,682.719L1865.17,657.585Z" style="fill:rgb(53,30,30);"/>
        <path d="M1882.52,684.135L1892.43,675.285L1910.49,681.657L1882.52,684.135Z" style="fill:rgb(53,30,30);"/>
        <path d="M1346.47,569.704C1401.04,578.202 1534.02,516.19 1568.19,472.755L1592.64,477.392C1583.24,511.756 1525.08,568.086 1425.72,581.085C1379.69,586.009 1361.95,578.358 1346.47,569.704Z" style="fill:rgb(74,48,48);"/>
        <path d="M1934,833.926L1837.52,841.644L1943,968.995L1934,833.926Z" style="fill:rgb(62,36,36);"/>
    </g>
    <g id="rocket" transform="matrix(1,0,0,1,369.919,-254.361)">
        <g id="shadow_2" transform="matrix(1,0,0,1,-369.919,254.361)">
            <path d="M1765.51,593.53L2012.63,669.883L2008.91,676.972L1755.45,599.12L1765.51,593.53Z" style="fill:rgb(45,28,28);"/>
        </g>
        <g id="shadow_1" transform="matrix(1,0,0,1,-369.919,254.361)">
            <path d="M1797.57,638.021L1790.41,641.386L1854.02,668.899L1858.27,659.828L1797.57,638.021Z" style="fill:rgb(43,26,26);"/>
        </g>
        <path id="back_wing" d="M1374.58,714.436C1374.58,714.436 1385.21,790.177 1384.95,851.912C1384.94,855.413 1392.74,853.987 1394.81,848.281C1396.76,842.918 1403.63,686.422 1393.77,689.535C1383.92,692.647 1374.58,714.436 1374.58,714.436Z" style="fill:rgb(153,0,0);"/>
        <path id="left_wing" d="M1287.35,614.134C1287.35,614.134 1172.04,658.364 1223.31,878.387C1224.35,882.827 1235.98,879.007 1236.42,874.468C1250.44,729.166 1307.47,715.764 1307.47,715.764L1287.35,614.134Z" style="fill:rgb(181,0,0);"/>
        <g transform="matrix(1,0,0,1,-369.919,254.361)">
            <path d="M1673.51,460.255C1635.22,484.324 1614.25,531.007 1605.46,618.696C1604.18,622.368 1603.53,623.034 1599.9,623.996C1611.47,528.972 1619.05,479.784 1666.77,435.342L1673.51,460.255Z" style="fill:rgb(156,6,6);"/>
        </g>
        <path id="body" d="M1306.67,730.396C1306.67,730.396 1207.93,394.956 1340.19,274.98C1445.51,390.791 1417.71,552.377 1375.82,727.715L1385.17,738.992L1380.33,747.381L1385.12,754.957L1379.09,762.418C1379.09,762.418 1391.58,796.849 1389.04,821.664C1387.49,836.872 1297.82,836.546 1295.89,821.664C1293.14,800.369 1307.87,763.615 1307.87,763.615L1301.29,756.434L1306.08,748.654L1296.5,740.276L1306.67,730.396Z" style="fill:rgb(156,6,6);"/>
        <path id="nose" d="M1285.18,371.017C1294.28,332.966 1315.29,296.779 1342.37,272.22C1368.98,301.482 1388,333.652 1396.45,371.017C1354.89,358.999 1318.03,359.613 1285.18,371.017Z" style="fill:rgb(82,79,79);"/>
        <g transform="matrix(1,0,0,1,-369.919,254.361)">
            <path d="M1714.72,23.399C1732.49,45.122 1754.56,78.546 1765.38,115.532C1754.3,111.052 1756.69,111.505 1740.25,109.174C1738.22,75.423 1729.47,45.466 1714.72,23.399Z" style="fill:rgb(55,52,52);"/>
        </g>
        <g transform="matrix(1,0,0,1,-369.919,254.361)">
            <path d="M1741.07,111.584C1750.53,113.461 1756.91,113.707 1766.37,117.946C1789.77,209.021 1781.05,306.578 1759.12,390.633C1759.38,378.798 1753.01,365.49 1752.96,351.24C1752.64,267.65 1756.82,152.519 1741.07,111.584Z" style="fill:rgb(116,0,0);"/>
        </g>
        <path d="M1297.75,741.05C1321.3,747.233 1377.33,748.034 1377.33,748.034C1377.33,748.034 1326.26,753.318 1306.19,748.388C1302.47,745.599 1301.18,744.182 1297.75,741.05Z" style="fill:rgb(74,48,48);"/>
        <g transform="matrix(1,0,0,1,5.73389,16.1898)">
            <path d="M1296.33,740.741C1319.88,746.925 1373.11,746.16 1373.11,746.16C1373.11,746.16 1322.88,752.433 1302.81,747.504C1299.31,745.157 1298.37,743.191 1296.33,740.741Z" style="fill:rgb(74,48,48);"/>
        </g>
        <g transform="matrix(-1,0,0,1,2684.23,78.9292)">
            <path d="M1306.33,685.958C1291.56,731.408 1365.32,747.031 1363.4,751.985C1363.4,751.985 1314.5,757.249 1297.1,745.562C1293.6,743.215 1298.21,706.796 1306.33,685.958Z" style="fill:rgb(116,0,0);"/>
        </g>
        <path id="right_wing" d="M1378.96,608.958C1369.88,641.862 1364.69,720.327 1364.69,720.327C1364.69,720.327 1410.29,746.481 1420.46,894.766C1420.65,897.602 1428.17,898.813 1428.89,896.063C1468.02,746.618 1388.04,576.053 1378.96,608.958Z" style="fill:rgb(181,0,0);"/>
        <g transform="matrix(1,0,0,1,-369.919,254.361)">
            <path d="M1750.32,355.238C1788.36,411.754 1820.55,524.519 1791.18,640.182C1792.98,643.431 1795.04,644.33 1797.42,642.332C1827.86,554.447 1793.27,391.951 1756.13,353.087C1752.62,350.355 1750.56,350.792 1750.32,355.238Z" style="fill:rgb(116,0,0);"/>
        </g>
    </g>
    <g id="space_man">
        <g id="space_man_shadow" transform="matrix(0.57992,-0.814674,-0.814674,-0.57992,1216,2351.69)">
            <path d="M931.646,1031.83L943.123,1031.01C942.118,994.521 941.325,976.564 936.8,930.843L936.761,835.252L942.727,835.227L946.308,892.535C948.862,912.289 950.144,936.069 950.464,962.899C950.519,967.579 949.18,979.67 949.18,979.67C949.18,979.67 947.479,988.633 946.303,1001.13C948.711,1008.75 959.037,1002.84 968.602,998.85C977.287,996.528 982.318,983.987 981.491,979.191C978.858,969.61 974.276,973.84 964.624,976.292C964.283,971.694 964.018,967.247 963.813,962.962C961.91,923.042 963.996,892.472 963.996,892.472L969.022,811.482L912.893,824.971L920.473,931.239L921.97,1046.22L931.646,1031.83Z" style="fill:rgb(44,10,0);"/>
        </g>
        <path id="body1" serif:id="body" d="M936.394,681.029L933.089,686.537C921.532,688.898 912.068,690.243 908.487,698.654C903.224,711.017 902.706,722.516 902.428,741.739L901.877,766.586L895.61,822.988C889.312,833.289 889.135,843.343 890.053,847.443C890.715,850.398 898.572,852.393 901.51,849.94C909.117,850.552 908.129,838.747 906.284,825.705L912.526,769.156L913.26,762.547L918.768,721.788L912.893,824.971L915.66,900.643L918.307,973.77C918.307,973.77 908.947,976.741 903.346,976.257C892.055,975.841 891.551,991.313 895.097,991.661C896.693,993.402 931.622,1004.64 930.519,992.781L929.784,972.952L931.988,900.247L936.761,835.252L942.636,833.783L946.308,892.535C948.862,912.289 950.144,936.069 950.464,962.899C950.519,967.579 949.18,979.67 949.18,979.67C949.18,979.67 947.313,983.798 946.138,996.291C950.882,1011.31 987.014,992.542 985.599,984.335C982.966,974.754 974.276,973.84 964.624,976.292C964.283,971.694 964.018,967.247 963.813,962.962C961.91,923.042 963.996,892.472 963.996,892.472L965.949,828.489L971.645,725.46L974.215,778.336L978.649,822.611C978.649,822.611 977.353,826.695 975.647,829.086C971.924,834.309 976.794,848.659 987.569,841.522C987.569,841.522 991.542,835.302 991.474,828.643C991.351,816.77 984.864,776.5 984.864,776.5C984.864,776.5 984.619,718.055 979.723,703.061C976.689,693.766 969.673,690.635 955.488,686.537L951.082,681.396L936.394,681.029Z" style="fill:rgb(178,151,143);"/>
        <path id="shadow" d="M936.394,681.029L933.089,686.537C921.532,688.898 920.477,690.243 916.896,698.654C911.633,711.017 909.714,722.516 909.436,741.739L908.418,768.455L901.684,822.521C900.525,832.354 898.012,836.802 898.93,840.902C899.592,843.857 898.572,852.393 901.51,849.94C909.117,850.552 908.129,838.747 906.284,825.705L912.526,769.156L913.26,762.547C913.26,762.547 915.403,714.031 922.039,719.919C929.045,726.135 929.603,813.845 929.603,813.845L924.537,899.709L922.512,976.574C922.512,976.574 921.094,987.487 915.493,987.002C904.202,986.587 891.551,991.313 895.097,991.661C896.693,993.402 931.622,1004.64 930.519,992.781L929.784,972.952L931.988,900.247L936.761,835.252L952.448,835.185L952.849,885.994C955.403,905.748 954.816,933.733 955.136,960.563C955.191,965.243 955.254,979.67 955.254,979.67C955.254,979.67 955.683,980.848 954.508,993.341C959.252,1008.36 987.014,992.542 985.599,984.335C982.966,974.754 974.276,973.84 964.624,976.292C964.283,971.694 964.018,967.247 963.813,962.962C961.91,923.042 963.996,892.472 963.996,892.472L965.949,828.489L971.645,725.46L978.888,772.263L986.124,821.677C986.124,821.677 985.762,832.301 984.057,834.693C980.333,839.915 976.794,848.659 987.569,841.522C987.569,841.522 991.542,835.302 991.474,828.643C991.351,816.77 984.864,776.5 984.864,776.5C984.864,776.5 984.619,718.055 979.723,703.061C976.689,693.766 969.673,690.635 955.488,686.537L951.082,681.396L936.394,681.029Z" style="fill:rgb(106,82,75);fill-opacity:0.5;"/>
        <path id="shadow1" serif:id="shadow" d="M936.394,681.029L933.089,686.537C921.532,688.898 920.477,690.243 916.896,698.654C911.633,711.017 909.714,722.516 909.436,741.739L908.418,768.455L901.684,822.521C900.525,832.354 898.012,836.802 898.93,840.902C899.592,843.857 898.572,852.393 901.51,849.94C909.117,850.552 908.129,838.747 906.284,825.705L912.526,769.156L913.26,762.547C913.26,762.547 915.403,714.031 922.039,719.919C929.045,726.135 929.603,813.845 929.603,813.845L924.537,899.709L922.512,976.574C922.512,976.574 921.094,987.487 915.493,987.002C904.202,986.587 891.551,991.313 895.097,991.661C896.693,993.402 931.622,1004.64 930.519,992.781L929.784,972.952L931.988,900.247L936.761,835.252L952.448,835.185L952.849,885.994C955.403,905.748 954.816,933.733 955.136,960.563C955.191,965.243 955.254,979.67 955.254,979.67C955.254,979.67 955.683,980.848 954.508,993.341C959.252,1008.36 987.014,992.542 985.599,984.335C982.966,974.754 974.276,973.84 964.624,976.292C964.283,971.694 964.018,967.247 963.813,962.962C961.91,923.042 963.996,892.472 963.996,892.472L965.949,828.489L971.645,725.46L978.888,772.263L986.124,821.677C986.124,821.677 985.762,832.301 984.057,834.693C980.333,839.915 976.794,848.659 987.569,841.522C987.569,841.522 991.542,835.302 991.474,828.643C991.351,816.77 984.864,776.5 984.864,776.5C984.864,776.5 984.619,718.055 979.723,703.061C976.689,693.766 969.673,690.635 955.488,686.537L951.082,681.396L936.394,681.029Z" style="fill:rgb(106,82,75);fill-opacity:0.5;"/>
        <g id="helmet" transform="matrix(1,0,0,1,-5.87519,-2.93759)">
            <ellipse cx="950.164" cy="653.122" rx="33.232" ry="33.782" style="fill:rgb(178,151,143);"/>
        </g>
        <g id="helmet_shadow" transform="matrix(1.01981,0,0,1.02862,-17.0574,-21.2935)">
            <path d="M968.815,640.325C966.548,653.303 956.82,665.82 935.814,677.775C935.814,677.775 956.558,683.147 965.849,672.955C980.535,656.841 968.815,640.325 968.815,640.325Z" style="fill:rgb(74,48,48);fill-opacity:0.5;"/>
        </g>
        <g id="visor" transform="matrix(1,0,0,1,-5.87519,-2.93759)">
            <path d="M950.164,619.339C957.664,626.683 958.063,629.264 946.941,644.229C941.068,652.13 916.932,671.767 916.932,653.122C916.932,634.477 931.823,619.339 950.164,619.339Z" style="fill:rgb(172,172,172);"/>
        </g>
        <g id="backpack">
            <g transform="matrix(1,0,0,1,-14.486,-30.9794)">
                <path d="M998.758,721.082L998.758,794.063C998.758,801.79 992.485,808.063 984.758,808.063L956.759,808.063C949.033,808.063 942.76,801.79 942.76,794.063L942.76,721.082C942.76,713.356 949.033,707.083 956.759,707.083L984.758,707.083C992.485,707.083 998.758,713.356 998.758,721.082Z" style="fill:rgb(218,199,199);"/>
            </g>
            <g transform="matrix(1,0,0,1,-3.01103,-30.9794)">
                <path d="M998.758,721.082L998.758,794.063C998.758,801.79 992.485,808.063 984.758,808.063L956.759,808.063C949.033,808.063 942.76,801.79 942.76,794.063L942.76,721.082C942.76,713.356 949.033,707.083 956.759,707.083L984.758,707.083C992.485,707.083 998.758,713.356 998.758,721.082Z" style="fill:rgb(126,104,98);"/>
            </g>
        </g>
    </g>
</svg>
