<?xml version="1.0" encoding="UTF-8" standalone="no"?>
<!DOCTYPE svg PUBLIC "-//W3C//DTD SVG 1.1//EN" "http://www.w3.org/Graphics/SVG/1.1/DTD/svg11.dtd">
<svg width="100%" height="100%" viewBox="0 0 416 308" version="1.1" xmlns="http://www.w3.org/2000/svg" xmlns:xlink="http://www.w3.org/1999/xlink" xml:space="preserve" xmlns:serif="http://www.serif.com/" style="fill-rule:evenodd;clip-rule:evenodd;stroke-linejoin:round;stroke-miterlimit:2;">
    <g transform="matrix(1,0,0,1,15.2388,-524.709)">
        <g id="mountains_left">
            <g transform="matrix(-0.668019,0,0,0.562554,335.51,371.315)">
                <path d="M302.049,806.896C184.959,765.945 106.049,692.269 57.556,592.52C47.142,571.097 38.13,548.472 30.444,524.709C-13.563,607.245 -107.609,698.905 -95.176,804.958L302.049,806.896Z" style="fill:rgb(75,75,75);"/>
            </g>
            <g transform="matrix(0.724761,0,0,0.75188,134.506,222.658)">
                <path d="M302.049,806.896C159.811,757.15 73.915,659.112 30.444,524.709C-13.563,607.245 -22.553,704.371 -10.12,810.423L302.049,806.896Z" style="fill:rgb(96,93,93);"/>
            </g>
            <g transform="matrix(0.724761,0,0,0.75188,134.506,222.658)">
                <path d="M29.318,539.741C59.103,626.319 107.344,698.51 180.347,750.566C98.597,713.454 38.532,652.266 17.605,567.481C21.848,554.079 25.749,546.323 29.318,539.741Z" style="fill:rgb(113,113,113);"/>
            </g>
            <path d="M316.369,674.291C366.549,736.832 387.645,771.055 394.152,791.072C370.362,750.054 339.153,719.259 305.596,701.224C307.31,697.106 314.045,686.501 316.369,674.291Z" style="fill:rgb(95,95,95);"/>
            <path d="M302.049,806.896C159.811,757.15 73.915,659.112 30.444,524.709C-13.563,607.245 -22.553,704.371 -10.12,810.423L302.049,806.896Z" style="fill:rgb(117,117,117);"/>
            <path d="M29.318,539.741C59.42,624.024 106.298,696.597 180.347,750.566C98.597,713.454 38.532,652.266 17.605,567.481C21.161,553.515 25.294,545.947 29.318,539.741Z" style="fill:rgb(134,134,134);"/>
        </g>
    </g>
</svg>
