<?xml version="1.0" encoding="UTF-8" standalone="no"?>
<!DOCTYPE svg PUBLIC "-//W3C//DTD SVG 1.1//EN" "http://www.w3.org/Graphics/SVG/1.1/DTD/svg11.dtd">
<svg width="100%" height="100%" viewBox="0 0 1066 1183" version="1.1" xmlns="http://www.w3.org/2000/svg" xmlns:xlink="http://www.w3.org/1999/xlink" xml:space="preserve" xmlns:serif="http://www.serif.com/" style="fill-rule:evenodd;clip-rule:evenodd;stroke-linejoin:round;stroke-miterlimit:2;">
    <g transform="matrix(1,0,0,1,-1634.27,-265.858)">
        <g id="rocket_shadow" transform="matrix(0.526945,-0.849899,-1.56987,-0.973336,2420.01,2854.1)">
            <path d="M1282.2,616.625C1260.37,628.472 1277.49,920.501 1277.49,920.501L1288.02,916.095C1288.02,916.095 1289.56,723.964 1303.13,717.452C1305.32,725.785 1306.67,730.396 1306.67,730.396L1296.5,740.276L1306.08,748.654L1301.29,756.434L1303.89,759.268C1304.65,760.254 1305.43,761.202 1306.56,762.187L1307.87,763.615C1307.87,763.615 1293.14,800.369 1295.89,821.664C1297.57,834.652 1366.08,836.553 1384.53,826.719C1384.83,835.223 1384.71,853.341 1384.71,853.341L1395.05,850.813C1395.05,850.813 1397.66,811.189 1398.53,774.907C1400.73,781.051 1414.75,653.008 1398.54,623.223C1415.6,531.418 1421.33,445.622 1396.45,371.017C1388,333.652 1368.98,301.482 1342.37,272.22C1315.29,296.779 1294.28,332.966 1285.18,371.017C1263.66,448.353 1270.68,543.615 1282.2,616.625ZM1379.99,761.301C1380.16,763.038 1380.33,764.806 1380.5,766.603C1379.64,763.951 1379.09,762.418 1379.09,762.418L1379.99,761.301Z" style="fill:rgb(42,31,27);fill-opacity:0.64;"/>
        </g>
        <g id="rocket" transform="matrix(1,0,0,1,424.102,-6.36167)">
            <path id="back_wing" d="M1374.58,714.436C1374.58,714.436 1385.21,790.177 1384.95,851.912C1384.94,855.413 1392.74,853.987 1394.81,848.281C1396.76,842.918 1403.63,686.422 1393.77,689.535C1383.92,692.647 1374.58,714.436 1374.58,714.436Z" style="fill:rgb(153,0,0);"/>
            <path id="left_wing" d="M1287.35,614.134C1287.35,614.134 1172.04,658.364 1223.31,878.387C1224.35,882.827 1235.98,879.007 1236.42,874.468C1250.44,729.166 1307.47,715.764 1307.47,715.764L1287.35,614.134Z" style="fill:rgb(181,0,0);"/>
            <g transform="matrix(1,0,0,1,-369.919,254.361)">
                <path d="M1673.51,460.255C1635.22,484.324 1614.25,531.007 1605.46,618.696C1604.18,622.368 1603.53,623.034 1599.9,623.996C1611.47,528.972 1619.05,479.784 1666.77,435.342L1673.51,460.255Z" style="fill:rgb(156,6,6);"/>
            </g>
            <path id="body" d="M1306.67,730.396C1306.67,730.396 1207.93,394.956 1340.19,274.98C1445.51,390.791 1417.71,552.377 1375.82,727.715L1385.17,738.992L1380.33,747.381L1385.12,754.957L1379.09,762.418C1379.09,762.418 1391.58,796.849 1389.04,821.664C1387.49,836.872 1297.82,836.546 1295.89,821.664C1293.14,800.369 1307.87,763.615 1307.87,763.615L1301.29,756.434L1306.08,748.654L1296.5,740.276L1306.67,730.396Z" style="fill:rgb(156,6,6);"/>
            <path id="nose" d="M1285.18,371.017C1294.28,332.966 1315.29,296.779 1342.37,272.22C1368.98,301.482 1388,333.652 1396.45,371.017C1354.89,358.999 1318.03,359.613 1285.18,371.017Z" style="fill:rgb(82,79,79);"/>
            <g transform="matrix(1,0,0,1,-369.919,254.361)">
                <path d="M1714.72,23.399C1732.49,45.122 1754.56,78.546 1765.38,115.532C1754.3,111.052 1756.69,111.505 1740.25,109.174C1738.22,75.423 1729.47,45.466 1714.72,23.399Z" style="fill:rgb(55,52,52);"/>
            </g>
            <g transform="matrix(1,0,0,1,-369.919,254.361)">
                <path d="M1741.07,111.584C1750.53,113.461 1756.91,113.707 1766.37,117.946C1789.77,209.021 1781.05,306.578 1759.12,390.633C1759.38,378.798 1753.01,365.49 1752.96,351.24C1752.64,267.65 1756.82,152.519 1741.07,111.584Z" style="fill:rgb(116,0,0);"/>
            </g>
            <path d="M1297.75,741.05C1321.3,747.233 1377.33,748.034 1377.33,748.034C1377.33,748.034 1326.26,753.318 1306.19,748.388C1302.47,745.599 1301.18,744.182 1297.75,741.05Z" style="fill:rgb(74,48,48);"/>
            <g transform="matrix(1,0,0,1,5.73389,16.1898)">
                <path d="M1296.33,740.741C1319.88,746.925 1373.11,746.16 1373.11,746.16C1373.11,746.16 1322.88,752.433 1302.81,747.504C1299.31,745.157 1298.37,743.191 1296.33,740.741Z" style="fill:rgb(74,48,48);"/>
            </g>
            <g transform="matrix(-1,0,0,1,2684.23,78.9292)">
                <path d="M1306.33,685.958C1291.56,731.408 1365.32,747.031 1363.4,751.985C1363.4,751.985 1314.5,757.249 1297.1,745.562C1293.6,743.215 1298.21,706.796 1306.33,685.958Z" style="fill:rgb(116,0,0);"/>
            </g>
            <path id="right_wing" d="M1378.96,608.958C1369.88,641.862 1364.69,720.327 1364.69,720.327C1364.69,720.327 1410.29,746.481 1420.46,894.766C1420.65,897.602 1428.17,898.813 1428.89,896.063C1468.02,746.618 1388.04,576.053 1378.96,608.958Z" style="fill:rgb(181,0,0);"/>
            <g transform="matrix(1,0,0,1,-369.919,254.361)">
                <path d="M1750.32,355.238C1788.36,411.754 1820.55,524.519 1791.18,640.182C1792.98,643.431 1795.04,644.33 1797.42,642.332C1827.86,554.447 1793.27,391.951 1756.13,353.087C1752.62,350.355 1750.56,350.792 1750.32,355.238Z" style="fill:rgb(116,0,0);"/>
            </g>
        </g>
    </g>
</svg>
