<?xml version="1.0" encoding="UTF-8" standalone="no"?>
<!DOCTYPE svg PUBLIC "-//W3C//DTD SVG 1.1//EN" "http://www.w3.org/Graphics/SVG/1.1/DTD/svg11.dtd">
<svg width="100%" height="100%" viewBox="0 0 472 689" version="1.1" xmlns="http://www.w3.org/2000/svg" xmlns:xlink="http://www.w3.org/1999/xlink" xml:space="preserve" xmlns:serif="http://www.serif.com/" style="fill-rule:evenodd;clip-rule:evenodd;stroke-linejoin:round;stroke-miterlimit:2;">
    <g transform="matrix(1,0,0,1,-889.648,-616.402)">
        <g id="space_man_shadow" transform="matrix(0.583522,-0.812097,-1.07174,-0.770083,1465.78,2538.81)">
            <path d="M924.019,1036.05L940.731,1014L934.611,955.639C935.249,955.52 935.886,955.384 936.522,955.233L936.942,944.575C936.275,944.732 935.606,944.871 934.933,944.994L935.921,857.74L947.046,851.632C947.272,851.602 947.497,851.575 947.721,851.552C947.721,851.552 946.463,899.298 949.121,923.331C948.58,923.433 948.032,923.55 947.479,923.68C947.771,927.64 948.023,931.702 948.237,935.861C948.777,935.714 949.315,935.585 949.851,935.473C950.16,943.792 950.361,954.307 950.464,962.899C950.519,967.579 949.18,979.67 949.18,979.67C949.18,979.67 947.313,983.798 946.138,996.291C948.545,1003.92 959.037,1002.84 968.602,998.85C977.287,996.528 986.426,989.131 985.599,984.335C982.966,974.754 974.276,973.84 964.624,976.292C964.283,971.694 964.018,967.247 963.813,962.962C963.394,954.177 963.169,943.644 963.072,935.582C963.563,935.669 964.053,935.762 964.542,935.861C964.492,931.556 964.491,927.482 964.524,923.68C964.03,923.575 963.533,923.477 963.033,923.386C963.174,904.529 967.112,816.683 967.112,816.683L967.999,800.632L970.051,801.005C970.163,801.03 970.275,801.056 970.387,801.081C971.012,798.559 971.362,795.732 970.674,792.566C970.65,792.429 970.625,792.293 970.599,792.156L970.579,792.153C970.573,792.131 970.568,792.11 970.563,792.088C969.876,791.981 969.184,791.876 968.489,791.774L969.954,765.278L975.318,765.278L975.379,766.531L978.088,793.59L977.351,793.59L977.752,797.593L978.489,797.593L979.812,810.806C979.812,810.806 978.516,814.889 976.81,817.281C973.718,821.618 976.552,832.249 983.773,831.643C984.434,831.666 985.301,831.464 986.403,830.975C987.146,830.668 987.922,830.253 988.732,829.717C988.732,829.717 992.706,823.496 992.637,816.837C992.595,812.803 991.819,805.49 990.812,797.593L991.447,797.593C991.278,796.271 991.103,794.932 990.924,793.59L990.289,793.59C988.551,780.566 986.426,767.189 986.077,765.005C992.28,763.916 996.91,759.699 996.91,754.67L995.747,686.712C995.747,680.857 989.474,676.104 981.747,676.104L965.593,676.104C972.881,669.905 977.52,660.591 977.52,650.184C977.52,631.539 962.63,616.402 944.289,616.402C925.948,616.402 913.372,642.247 913.372,660.892C913.372,674.549 921.361,686.324 932.843,691.647C931.417,693.309 930.588,695.291 930.588,697.42L930.588,698.218C921.262,700.135 913.871,702.153 910.801,709.362C905.538,721.725 905.021,733.224 904.743,752.447L904.192,777.294L899.722,817.525L898.843,817.525L898.252,822.452L899.174,822.452L897.925,833.696C891.626,843.997 891.45,854.051 892.368,858.151C893.018,861.054 900.612,863.031 903.665,860.774C903.718,860.735 903.771,860.693 903.825,860.648C911.432,861.26 910.444,849.456 908.598,836.413L910.139,822.452L910.64,822.452L911.227,817.525L910.683,817.525L914.841,779.865L915.575,773.255L921.083,732.496L916.591,811.394L916.531,812.269C916.293,812.283 916.055,812.296 915.817,812.31C914.61,815.495 914.018,818.448 914.759,821.655C915.139,821.613 915.519,821.572 915.897,821.532L915.715,824.202C915.762,824.224 915.81,824.247 915.857,824.269L915.208,835.679L920.409,945.01C919.678,944.884 918.944,944.739 918.206,944.575L918.707,955.233C919.453,955.414 920.196,955.571 920.937,955.706L924.019,1036.05Z" style="fill:rgb(42,31,27);fill-opacity:0.5;"/>
        </g>
        <g id="space_man">
            <path id="body" d="M989.649,809.399C990.656,817.296 991.432,824.609 991.474,828.643C991.542,835.302 987.569,841.522 987.569,841.522C976.794,848.659 971.924,834.309 975.647,829.086C977.353,826.695 978.649,822.611 978.649,822.611L977.326,809.399L989.649,809.399Z" style="fill:rgb(36,24,20);"/>
            <path id="body1" serif:id="body" d="M976.589,809.399L976.188,805.395L989.761,805.395C989.94,806.738 990.115,808.076 990.284,809.399L976.589,809.399Z" style="fill:rgb(36,24,20);"/>
            <path id="body2" serif:id="body" d="M976.925,805.395L974.215,778.336L971.645,725.46L965.949,828.489L963.996,892.472C963.996,892.472 963.165,904.654 963.031,923.68L949.143,923.68C948.468,912.442 947.535,902.024 946.308,892.535L942.636,833.783L936.761,835.252L931.988,900.247L931.04,931.514L916.628,931.514L915.66,900.643L912.893,824.971L918.768,721.788L913.26,762.547L912.526,769.156L908.369,806.817L897.407,806.817L901.877,766.586L902.428,741.739C902.706,722.516 903.224,711.017 908.487,698.654C912.068,690.243 921.532,688.898 933.089,686.537L936.394,681.029L951.082,681.396L955.488,686.537C969.673,690.635 976.689,693.766 979.723,703.061C984.619,718.055 984.864,776.5 984.864,776.5C984.864,776.5 987.226,791.159 989.126,805.395L976.925,805.395Z" style="fill:rgb(181,73,42);"/>
            <path id="body3" serif:id="body" d="M907.825,811.744L906.284,825.705C908.129,838.747 909.117,850.552 901.51,849.94C898.572,852.393 890.715,850.398 890.053,847.443C889.135,843.343 889.312,833.289 895.61,822.988L896.86,811.744L907.825,811.744Z" style="fill:rgb(36,24,20);"/>
            <g id="body4" serif:id="body" transform="matrix(1.08017,0,0,1,-72.8231,0)">
                <path d="M896.86,811.744L897.407,806.817L908.873,806.817L908.329,811.744L896.86,811.744Z" style="fill:rgb(36,24,20);"/>
            </g>
            <g transform="matrix(0.816,0,0,0.969882,172.309,20.5835)">
                <path d="M948.12,894.415L956.77,892.523L956.77,894.821L948.12,894.415Z" style="fill:rgb(136,55,32);"/>
            </g>
            <path id="body5" serif:id="body" d="M917.082,939.921L930.785,939.921L929.784,972.952L930.519,992.781C931.622,1004.64 896.693,993.402 895.097,991.661C891.551,991.313 892.055,975.841 903.346,976.257C908.947,976.741 918.307,973.77 918.307,973.77L917.082,939.921Z" style="fill:rgb(33,33,33);"/>
            <path id="body6" serif:id="body" d="M963.046,933.185C963.125,941.466 963.352,953.277 963.813,962.962C964.018,967.247 964.283,971.694 964.624,976.292C974.276,973.84 982.966,974.754 985.599,984.335C987.014,992.542 950.882,1011.31 946.138,996.291C947.313,983.798 949.18,979.67 949.18,979.67C949.18,979.67 950.519,967.579 950.464,962.899C950.352,953.498 950.122,941.795 949.76,933.185C955.089,933.384 959.275,933.116 963.046,933.185Z" style="fill:rgb(33,33,33);"/>
            <g id="body7" serif:id="body" transform="matrix(1.30002,0,0,1,-277.358,0)">
                <path d="M931.108,929.263L930.785,939.921C926.314,941.302 921.753,941.396 917.082,939.921L916.696,929.263C921.703,930.711 926.501,930.67 931.108,929.263Z" style="fill:rgb(33,33,33);"/>
            </g>
            <g id="body8" serif:id="body" transform="matrix(1.22727,0,0,1,-217.378,0)">
                <path d="M963.031,923.68C963.004,927.482 963.005,931.556 963.046,935.861C958.705,934.788 954.313,934.336 949.76,935.861C949.585,931.702 949.38,927.64 949.143,923.68C954.255,922.197 958.764,922.568 963.031,923.68Z" style="fill:rgb(33,33,33);"/>
            </g>
            <path d="M913.503,801.602C912.295,804.787 911.704,807.74 912.445,810.947C933.924,808.576 952.916,809.145 969.223,812.887C969.88,810.238 970.233,807.254 969.4,803.894C953.381,801.387 935.164,800.347 913.503,801.602Z" style="fill:rgb(36,24,20);"/>
            <path d="M924.441,796.471L922.369,814.681C923.798,814.408 925.067,814.485 926.242,814.77L928.299,796.549C926.989,796.886 925.7,796.894 924.441,796.471Z" style="fill:rgb(36,24,20);"/>
            <g transform="matrix(1,0,0,1,-3.73093,-0.100424)">
                <path d="M918.307,796.402L917.131,813.594C919.762,814.849 922.818,815.199 926.242,814.77L928.299,796.549C924.821,797.039 921.487,797.001 918.307,796.402Z" style="fill:rgb(64,56,53);"/>
            </g>
            <path d="M914.423,801.999C917.233,802.952 920.371,803.116 923.781,802.629L923.646,803.214C920.404,803.764 917.305,803.743 914.423,802.854L914.423,801.999Z" style="fill:rgb(36,24,20);"/>
            <path id="shadow" d="M936.394,681.029L933.089,686.537C921.532,688.898 920.477,690.243 916.896,698.654C911.633,711.017 909.714,722.516 909.436,741.739L908.418,768.455L901.684,822.521C900.525,832.354 898.012,836.802 898.93,840.902C899.592,843.857 898.572,852.393 901.51,849.94C909.117,850.552 908.129,838.747 906.284,825.705L912.526,769.156L913.26,762.547C913.26,762.547 915.403,714.031 922.039,719.919C929.045,726.135 929.603,813.845 929.603,813.845L924.537,899.709L922.512,976.574C922.512,976.574 921.094,987.487 915.493,987.002C904.202,986.587 891.551,991.313 895.097,991.661C896.693,993.402 931.622,1004.64 930.519,992.781L929.784,972.952L931.988,900.247L936.761,835.252C942.503,833.178 947.682,833.354 952.448,835.185L952.849,885.994C955.403,905.748 954.816,933.733 955.136,960.563C955.191,965.243 955.254,979.67 955.254,979.67C955.254,979.67 955.683,980.848 954.508,993.341C959.252,1008.36 987.014,992.542 985.599,984.335C982.966,974.754 974.276,973.84 964.624,976.292C964.283,971.694 964.018,967.247 963.813,962.962C961.91,923.042 963.996,892.472 963.996,892.472L965.949,828.489L966.836,812.437L969.194,812.866C970.033,809.854 969.994,806.892 969.436,803.962L967.324,803.622L971.645,725.46L978.888,772.263L986.124,821.677C986.124,821.677 986.02,832.508 984.057,834.693C979.965,839.249 978.571,847.102 987.569,841.522C987.569,841.522 991.542,835.302 991.474,828.643C991.351,816.77 984.864,776.5 984.864,776.5C984.864,776.5 984.619,718.055 979.723,703.061C976.689,693.766 969.673,690.635 955.488,686.537L951.082,681.396L936.394,681.029Z" style="fill-opacity:0.5;"/>
            <g id="helmet" transform="matrix(1,0,0,1,-5.87519,-2.93759)">
                <ellipse cx="950.164" cy="653.122" rx="33.232" ry="33.782" style="fill:rgb(181,73,42);"/>
            </g>
            <g id="helmet_shadow" transform="matrix(1.01981,0,0,1.02862,-17.0574,-21.2935)">
                <path d="M968.815,640.325C966.548,653.303 956.82,665.82 935.814,677.775C935.814,677.775 956.558,683.147 965.849,672.955C980.535,656.841 968.815,640.325 968.815,640.325Z" style="fill:rgb(74,48,48);fill-opacity:0.5;"/>
            </g>
            <g id="visor" transform="matrix(1,0,0,1,-5.87519,-2.93759)">
                <path d="M950.164,619.339C957.664,626.683 958.063,629.264 946.941,644.229C941.068,652.13 916.932,671.767 916.932,653.122C916.932,634.477 931.823,619.339 950.164,619.339Z" style="fill:rgb(86,71,71);"/>
            </g>
            <g id="backpack">
                <g transform="matrix(1,0,0,1,-14.486,-30.9794)">
                    <path d="M998.758,721.082L998.758,794.063C998.758,801.79 992.485,808.063 984.758,808.063L956.759,808.063C949.033,808.063 942.76,801.79 942.76,794.063L942.76,721.082C942.76,713.356 949.033,707.083 956.759,707.083L984.758,707.083C992.485,707.083 998.758,713.356 998.758,721.082Z" style="fill:rgb(218,199,199);"/>
                </g>
                <g transform="matrix(1,0,0,1,-3.01103,-30.9794)">
                    <path d="M998.758,721.082L998.758,794.063C998.758,801.79 992.485,808.063 984.758,808.063L956.759,808.063C949.033,808.063 942.76,801.79 942.76,794.063L942.76,721.082C942.76,713.356 949.033,707.083 956.759,707.083L984.758,707.083C992.485,707.083 998.758,713.356 998.758,721.082Z" style="fill:rgb(99,41,24);"/>
                </g>
            </g>
        </g>
    </g>
</svg>
